<?xml version="1.0" encoding="utf-8"?>
<!-- Uploaded to: SVG Repo, www.svgrepo.com, Generator: SVG Repo Mixer Tools -->
<svg width="800px" height="800px" viewBox="0 0 1024 1024" class="icon"  version="1.1" xmlns="http://www.w3.org/2000/svg"><path d="M993.255 493.538v35c0 13.331-6.04 26.664-18.135 37.137C834.97 687.097 694.771 808.47 554.63 929.894c-11.814 10.237-25.813 15.501-42.454 15.501v-35c16.643 0 30.64-5.264 42.454-15.501C694.771 773.47 834.966 652.092 975.12 530.677c12.095-10.475 18.135-23.803 18.135-37.139z" fill="#EAC54C" /><path d="M29.731 528.367v-3.5-1.75-3.5-3.5-1.75-3.5-3.5-1.75-3.5-3.5-1.75-3.5c0 14.707 6.701 29.313 19.037 40.019C187.217 653.45 325.817 773.382 464.33 893.405c13.002 11.26 28.74 16.466 47.852 16.994v35c-19.108-0.528-34.85-5.734-47.852-16.994C325.817 808.382 187.217 688.45 48.768 568.386c-12.336-10.705-19.037-25.312-19.037-40.019z" fill="#EAC54C" /><path d="M510.278 76.601c16.263 0 32.546 5.362 44.946 16.097 139.95 121.188 279.901 242.376 419.819 363.586 24.241 20.995 24.295 53.413 0.079 74.397-140.15 121.42-280.35 242.796-420.489 364.217-11.815 10.239-25.813 15.502-42.452 15.502-19.109-0.528-34.852-5.734-47.854-16.994-138.511-120.024-277.111-239.956-415.56-360.02-19.581-16.988-24.96-43.81-11.895-65.251 3.919-6.438 8.669-11.829 14.465-16.849C189.446 331.734 327.517 212.152 465.6 92.567c12.295-10.64 28.477-15.966 44.678-15.966z" fill="#F0DB70" /><path d="M309.016 347.083v-15.996-0.804c0.01-6.225 0.756-6.878 7.974-6.878a382039.738 382039.738 0 0 1 151.401 0c7.45 0 8.136 0.603 8.136 7.123v16.8c0-6.521-0.687-7.123-8.136-7.123a382049.831 382049.831 0 0 0-151.401 0c-7.219-0.001-7.966 0.652-7.974 6.878z" fill="#C3792C" /><path d="M476.525 330.527v16.8c0-6.521-0.686-7.123-8.136-7.123a382063.963 382063.963 0 0 0-151.401 0c-1.738 0-3.101 0.038-4.167 0.182v-16.8c1.066-0.144 2.429-0.182 4.167-0.182a382039.738 382039.738 0 0 1 151.401 0c7.451 0 8.136 0.602 8.136 7.123" fill="#C3792C" /><path d="M312.822 323.586v16.8c-0.581 0.079-1.073 0.189-1.492 0.342v-16.8c0.419-0.153 0.911-0.263 1.492-0.342M311.329 323.928v16.8a3.54 3.54 0 0 0-0.712 0.345v-16.8c0.21-0.135 0.446-0.248 0.712-0.345" fill="#C3792C" /><path d="M310.62 324.272v16.8a2.612 2.612 0 0 0-0.607 0.526v-16.8c0.171-0.202 0.371-0.378 0.607-0.526M310.013 324.798v16.8c-0.603 0.713-0.854 1.783-0.946 3.379v-16.8c0.092-1.595 0.343-2.665 0.946-3.379M309.066 328.178v16.8a37.572 37.572 0 0 0-0.052 2.104c-0.004 10.586-0.007 21.173-0.007 31.76v-16.8c0-10.587 0.001-21.175 0.007-31.761a37.61 37.61 0 0 1 0.052-2.103" fill="#C3792C" /><path d="M502.302 323.94v16.8c0 0.432-0.018 0.864-0.055 1.297-0.29 3.409-0.38 6.829-0.38 10.292v-16.8c0-3.462 0.09-6.882 0.38-10.292 0.037-0.433 0.055-0.866 0.055-1.297z" fill="#C3792C" /><path d="M502.302 323.94v16.8c0 0.317-0.008 0.635-0.028 0.953v-16.8c0.02-0.319 0.028-0.637 0.028-0.953M502.274 324.892v16.8l-0.024 0.346a86.853 86.853 0 0 0-0.169 2.338v-16.8c0.046-0.782 0.103-1.56 0.169-2.338l0.024-0.346M502.079 327.576v16.8a133.61 133.61 0 0 0-0.212 7.952v-16.8c0-2.671 0.055-5.317 0.212-7.952" fill="#C3792C" /><path d="M309.016 347.886c-0.004 10.168-0.007 20.336-0.007 30.504v-16.381c0-10.309 0.001-20.617 0.007-30.923v16.8z" fill="#C3792C" /><path d="M309.066 328.178v16.8a37.572 37.572 0 0 0-0.052 2.104c-0.004 10.586-0.007 21.173-0.007 31.76v-16.8c0-10.587 0.001-21.175 0.007-31.761a37.61 37.61 0 0 1 0.052-2.103" fill="#C3792C" /><path d="M476.525 330.527v16.8c0 12.544-0.031 25.088-0.072 37.624v-16.8c0.041-12.536 0.072-25.08 0.072-37.624z" fill="#C3792C" /><path d="M476.525 330.527v16.8c0 12.544-0.031 25.088-0.072 37.624v-16.8c0.041-12.536 0.072-25.08 0.072-37.624" fill="#C3792C" /><path d="M309.009 378.763v-16.8l0.001 6.337v16.799l-0.001-6.336z" fill="#C3792C" /><path d="M309.01 368.3v16.799l-0.001-6.336v-16.8l0.001 6.337" fill="#C3792C" /><path d="M705.619 391.495v-0.168-0.178-0.186-0.187-0.188-0.185-0.178-0.168-1.797-1.904-1.976-2.012-2.011-1.974-1.9-1.792h0.334c0.377 0.003 0.757 0.007 1.135 0.017V391.511c-0.378-0.01-0.758-0.014-1.135-0.017l-0.334 0.001z" fill="#C3792C" /><path d="M713.925 393.312v16.799c-0.001-4.319-0.013-8.605-0.048-12.895-0.037-4.724-1.086-5.534-6.631-5.701a61.74 61.74 0 0 0-1.292-0.021c-1.354 0-2.275 0.012-3.193 0.012-72.857 0-145.727 0.008-218.585 0.008-6.126 0-7.731-1.387-7.722-6.564v-16.8c-0.01 5.177 1.594 6.565 7.722 6.565 72.858 0 145.728-0.009 218.585-0.009 0.918 0 1.84-0.012 3.193-0.012 0.432 0.002 0.861 0.008 1.292 0.021 5.545 0.166 6.594 0.977 6.631 5.701 0.035 4.29 0.047 8.577 0.048 12.896" fill="#C3792C" /><path d="M484.174 391.515c-6.126 0-7.731-1.387-7.722-6.564v-16.8c-0.01 5.177 1.594 6.564 7.722 6.564 72.859 0 145.727-0.008 218.584-0.008 0.841 0 1.685-0.011 2.86-0.012V391.498c-1.176 0.001-2.02 0.012-2.86 0.012-72.857-0.003-145.725 0.005-218.584 0.005z" fill="#C3792C" /><path d="M713.925 393.312v16.799c-0.001-4.319-0.013-8.605-0.048-12.895-0.037-4.724-1.086-5.534-6.631-5.701a61.74 61.74 0 0 0-1.292-0.021c-1.354 0-2.275 0.012-3.193 0.012-72.857 0-145.727 0.008-218.585 0.008-6.126 0-7.731-1.387-7.722-6.564v-16.8c-0.01 5.177 1.594 6.565 7.722 6.565 72.858 0 145.728-0.009 218.585-0.009 0.918 0 1.84-0.012 3.193-0.012 0.432 0.002 0.861 0.008 1.292 0.021 5.545 0.166 6.594 0.977 6.631 5.701 0.035 4.29 0.047 8.577 0.048 12.896" fill="#C3792C" /><path d="M707.088 391.511v-0.246-0.258-0.266-0.27-0.269-0.265-0.254-0.24-1.721-1.824-1.895-1.928-1.928-1.894-1.825-1.72l0.157 0.004c5.545 0.167 6.594 0.978 6.631 5.701 0.035 4.288 0.046 8.576 0.048 12.896v16.799c-0.002-4.319-0.013-8.605-0.048-12.895-0.037-4.724-1.086-5.534-6.631-5.701a2.052 2.052 0 0 1-0.157-0.001z" fill="#C3792C" /><path d="M713.925 393.312v16.799c-0.001-4.319-0.013-8.605-0.048-12.895-0.037-4.724-1.086-5.534-6.631-5.701a61.74 61.74 0 0 0-1.292-0.021c-1.354 0-2.275 0.012-3.193 0.012-72.857 0-145.727 0.008-218.585 0.008-6.126 0-7.731-1.387-7.722-6.564v-16.8c-0.01 5.177 1.594 6.565 7.722 6.565 72.858 0 145.728-0.009 218.585-0.009 0.918 0 1.84-0.012 3.193-0.012 0.432 0.002 0.861 0.008 1.292 0.021 5.545 0.166 6.594 0.977 6.631 5.701 0.035 4.29 0.047 8.577 0.048 12.896" fill="#C3792C" /><path d="M309.025 406.316v16.8a60213.8 60213.8 0 0 1-0.017-38.017V368.3c0.002 12.672 0.008 25.345 0.017 38.016z" fill="#C3792C" /><path d="M309.025 406.316v16.8a60213.8 60213.8 0 0 1-0.017-38.017V368.3c0.002 12.672 0.008 25.345 0.017 38.016" fill="#C3792C" /><path d="M309.299 410.201v16.8c-0.103-1.397-0.272-2.646-0.272-3.886v-16.8c-0.002 1.241 0.169 2.489 0.272 3.886z" fill="#C3792C" /><path d="M309.299 410.201v16.8c-0.103-1.397-0.272-2.646-0.272-3.886v-16.8c-0.002 1.241 0.169 2.489 0.272 3.886" fill="#C3792C" /><path d="M713.91 410.201v16.8H309.299v-16.8H713.91z" fill="#C3792C" /><path d="M713.91 410.201v16.8H309.299v-16.8H713.91" fill="#C3792C" /><path d="M713.925 393.312v16.799c0 5.555-0.015 11.161-0.015 16.891v-16.8c0-5.731 0.015-11.338 0.015-16.89z" fill="#C3792C" /><path d="M713.925 393.312v16.799c0 5.555-0.015 11.161-0.015 16.891v-16.8c0-5.731 0.015-11.338 0.015-16.89" fill="#C3792C" /><path d="M713.91 432.741v16.8H309.015v-16.8H713.91z" fill="#C3792C" /><path d="M713.91 432.741v16.8H309.015v-16.8H713.91" fill="#C3792C" /><path d="M713.91 434.987v14.553-16.8 2.247z" fill="#C3792C" /><path d="M713.91 434.987v14.553-16.8 2.247" fill="#C3792C" /><path d="M309.016 450.167v-16.8 16.8z" fill="#C3792C" /><path d="M309.016 433.373V453.881v-16.8-3.708" fill="#C3792C" /><path d="M283.471 477.252v16.517c0-50.613-0.083-101.227-0.251-151.837v-16.8c0.169 50.706 0.251 101.412 0.251 152.12z" fill="#C3792C" /><path d="M283.471 477.252v16.8c0-50.709-0.082-101.415-0.251-152.121v-16.8c0.169 50.707 0.251 101.413 0.251 152.121" fill="#C3792C" /><path d="M739.444 517.948v-16.8c0-41.08 0.064-82.16 0.319-123.236v16.8c-0.254 41.076-0.319 82.156-0.319 123.236z" fill="#C3792C" /><path d="M739.764 377.912v16.8c-0.255 41.078-0.319 82.158-0.319 123.236v-16.8c-0.001-41.08 0.064-82.16 0.319-123.236" fill="#C3792C" /><path d="M713.91 545.84v-16.8-91.952V545.84z" fill="#C3792C" /><path d="M713.91 529.04v-91.952 91.952" fill="#C3792C" /><path d="M713.91 432.741V620.994c0 7.202-0.495 7.629-8.912 7.629H317.915c-8.406 0-8.899-0.429-8.899-7.639V437.079v-4.339l404.894 0.001z" fill="#EBC64E" /><path d="M713.91 620.993v16.8c0 7.202-0.495 7.629-8.912 7.629H317.915c-8.406 0-8.899-0.428-8.899-7.639v-16.8c0 7.21 0.494 7.639 8.899 7.639h387.083c8.417 0.001 8.912-0.427 8.912-7.629z" fill="#C3792C" /><path d="M713.91 620.993v16.8c0 1.084-0.013 2.014-0.061 2.814v-16.8c0.048-0.799 0.061-1.729 0.061-2.814" fill="#C3792C" /><path d="M713.85 623.808v16.8c-0.096 1.611-0.342 2.687-0.943 3.403v-16.8c0.601-0.717 0.847-1.79 0.943-3.403M712.906 627.211v16.8a2.615 2.615 0 0 1-0.605 0.525v-16.801c0.236-0.148 0.433-0.322 0.605-0.524" fill="#C3792C" /><path d="M712.302 627.735v16.801a3.432 3.432 0 0 1-0.711 0.346v-16.8c0.266-0.098 0.503-0.211 0.711-0.347M711.591 628.082v16.8c-0.424 0.154-0.924 0.264-1.515 0.345v-16.801c0.591-0.08 1.091-0.19 1.515-0.344M710.076 628.426v16.801c-1.247 0.166-2.896 0.196-5.078 0.196H317.915c-8.406 0-8.899-0.428-8.899-7.639v-16.8c0 7.211 0.494 7.639 8.899 7.639h387.083c2.181 0 3.831-0.03 5.078-0.197" fill="#C3792C" /><path d="M739.764 377.912c-0.513 82.896-0.252 165.801-0.252 248.705 0 11.392-7.943 20.837-19.808 23.413-2.419 0.522-5.021 0.627-7.529 0.627-37.064 0.009-74.116 0.009-111.173 0.009-16.689-0.002-33.393-0.002-50.081-0.002-80.068 0-160.121 0.029-240.181 0.196-14.103 0-27.549-11.484-27.508-23.869 0.323-100.615 0.323-201.24-0.011-301.857-0.04-12.392 13.178-23.989 27.624-23.989 27.478 0.235 54.735 0.352 81.992 0.352 27.256 0 54.512-0.116 81.765-0.343 14.6 0 28.69 11.727 27.648 24.086-0.756 8.867-0.152 17.825-0.152 27.358h5.775c36.426 0 72.857 0.087 109.283 0.087 31.074 0 62.145-0.063 93.215-0.295 16.336-0.004 29.483 11.574 29.393 25.522z m-25.854 59.176v-4.348H309.015v188.244c0 7.211 0.494 7.64 8.899 7.64h387.082c8.419 0 8.913-0.429 8.913-7.63l0.001-183.906m0-26.887c0-5.73 0.015-11.337 0.015-16.89-0.001-4.319-0.013-8.605-0.048-12.895-0.037-4.724-1.086-5.535-6.631-5.701-0.431-0.013-0.86-0.019-1.292-0.021-1.354 0-2.275 0.012-3.193 0.012-72.857 0-145.727 0.009-218.585 0.009-6.126 0-7.731-1.388-7.722-6.565 0.041-12.536 0.071-25.08 0.071-37.625 0-6.521-0.685-7.123-8.135-7.123-25.237-0.006-50.467-0.007-75.701-0.007-25.233 0-50.465 0.001-75.7 0.007-7.219 0-7.964 0.653-7.974 6.878-0.005 12.671-0.008 25.344-0.007 38.017 0.001 12.673 0.007 25.345 0.017 38.017 0 1.24 0.172 2.488 0.272 3.884 134.89 0.003 269.368 0.003 404.613 0.003" fill="#D88E40" /><path d="M392.689 323.397c25.233 0 50.466 0.001 75.701 0.007 7.449 0 8.135 0.603 8.135 7.123 0 12.544-0.031 25.088-0.072 37.624-0.01 5.177 1.594 6.564 7.723 6.564 72.857 0 145.728-0.008 218.585-0.008 0.917 0 1.839-0.012 2.76-0.012a57.95 57.95 0 0 1 1.726 0.022c5.544 0.167 6.593 0.979 6.631 5.701 0.035 4.288 0.047 8.576 0.047 12.895 0 5.554-0.016 11.16-0.016 16.89H309.298c-0.103-1.397-0.272-2.646-0.272-3.886a60210.435 60210.435 0 0 1-0.011-76.034c0.009-6.225 0.756-6.88 7.973-6.88 25.236-0.005 50.47-0.006 75.701-0.006z" fill="#DFAA45" /><path d="M739.512 626.616v16.8c0 11.392-7.943 20.837-19.808 23.413-2.419 0.522-5.021 0.628-7.529 0.628-37.064 0.008-74.116 0.008-111.173 0.008l-50.081-0.001c-80.068 0-160.121 0.028-240.181 0.195-14.103 0-27.549-11.484-27.508-23.868V626.99c-0.041 12.385 13.405 23.869 27.508 23.869 80.06-0.167 160.113-0.196 240.181-0.196 16.69 0 33.394 0 50.081 0.002 37.057 0 74.109 0 111.173-0.009 2.509 0 5.11-0.104 7.529-0.627 11.864-2.576 19.808-12.021 19.808-23.413z" fill="#C3792C" /><path d="M739.512 626.616v16.8c0 0.492-0.015 0.981-0.045 1.466v-16.799c0.03-0.485 0.045-0.975 0.045-1.467M739.467 628.083v16.799c-0.312 5.141-2.255 9.83-5.444 13.586v-16.801c3.189-3.757 5.132-8.444 5.444-13.584M734.022 641.667v16.801a24.3 24.3 0 0 1-5.452 4.746v-16.8a24.283 24.283 0 0 0 5.452-4.747" fill="#C3792C" /><path d="M728.571 646.414v16.8a26.167 26.167 0 0 1-5.104 2.524v-16.8a26.28 26.28 0 0 0 5.104-2.524" fill="#C3792C" /><path d="M723.468 648.937v16.8c-1.204 0.44-2.46 0.807-3.764 1.092a23.8 23.8 0 0 1-1.771 0.309v-16.8a23.382 23.382 0 0 0 1.771-0.31c1.304-0.282 2.56-0.65 3.764-1.091" fill="#C3792C" /><path d="M717.934 650.337v16.8c-1.893 0.259-3.853 0.32-5.759 0.32-37.064 0.008-74.116 0.008-111.173 0.008l-50.081-0.001c-80.068 0-160.121 0.028-240.181 0.195-14.103 0-27.549-11.484-27.508-23.868V626.99c-0.041 12.385 13.405 23.869 27.508 23.869 80.06-0.167 160.113-0.196 240.181-0.196 16.69 0 33.394 0 50.081 0.002 37.057 0 74.109 0 111.173-0.009 1.906 0 3.866-0.061 5.759-0.319" fill="#C3792C" /></svg>